<svg width="960" height="960" viewBox="0 0 960 960" fill="none" xmlns="http://www.w3.org/2000/svg">
<circle cx="480" cy="480" r="466" fill="black" stroke="#FFCC00" stroke-width="28"/>
<path d="M254.974 271.441C229.658 292.047 217 316.48 217 344.74C217 370.645 228.481 392.722 251.442 410.974C273.814 428.047 297.658 434.818 322.974 431.285C351.822 427.164 371.545 411.857 382.143 385.363C386.853 373 386.264 360.047 380.377 346.506C374.489 332.965 365.364 323.545 353 318.246C344.169 314.125 335.043 313.242 325.623 315.597C316.792 317.952 312.965 321.19 314.143 325.311C315.909 328.844 318.853 330.021 322.974 328.844C335.338 322.956 345.346 325.9 353 337.675C359.476 348.272 360.359 358.87 355.649 369.467C344.463 393.606 325.329 400.965 298.247 391.545C271.753 382.714 259.095 367.701 260.273 346.506C260.862 328.255 269.398 311.77 285.883 297.052C301.191 284.099 317.381 277.034 334.455 275.857H433.364V639.701C433.364 684.445 428.654 709.761 419.234 715.649C415.113 721.536 400.983 724.48 376.844 724.48C374.489 725.657 373.312 728.012 373.312 731.545C375.078 735.077 379.788 736.843 387.442 736.843C399.217 735.666 466.922 735.077 590.558 735.077C595.268 733.311 597.623 730.367 597.623 726.246C595.268 723.891 591.147 722.714 585.26 722.714L555.234 720.947L539.337 717.415C534.039 716.238 529.329 709.761 525.208 697.986C523.442 687.389 521.675 661.484 519.909 620.272V275.857C574.074 275.857 611.753 277.034 632.948 279.389C647.667 281.744 657.97 285.571 663.857 290.87C668.567 294.402 672.394 300.584 675.338 309.415L677.104 330.61L678.87 334.143L685.935 335.909C687.701 335.909 689.467 334.142 691.234 330.61L693 238.766C693 236.411 690.056 235.233 684.169 235.233L645.311 240.532H337.987C306.784 241.121 279.113 251.424 254.974 271.441Z" fill="#FFCC00"/>
</svg>
